<svg xmlns="http://www.w3.org/2000/svg" viewBox="0 0 98.22 98.22"><defs><style>.cls-1{fill:#d22215;}.cls-2{fill:#a81411;}.cls-3{fill:#fff;}.cls-4{fill:#d1d1d1;}</style></defs><title>youtube</title><g id="Layer_2" data-name="Layer 2"><g id="Layer_1-2" data-name="Layer 1"><circle class="cls-1" cx="49.11" cy="49.11" r="49.11"/><path class="cls-2" d="M73.83,32.68c-1.47.45-3,.83-4.55,1.22-10.91,2.31-25.46-4-31.74,6.28-5.24,8.15-6.9,18.35-12.86,25.64L56.52,97.66A49.14,49.14,0,0,0,97.67,56.51Z"/><path class="cls-3" d="M65.54,29.22H32.68A11.67,11.67,0,0,0,21,40.9V57.32A11.67,11.67,0,0,0,32.68,69H65.54A11.68,11.68,0,0,0,77.22,57.32V40.9A11.68,11.68,0,0,0,65.54,29.22ZM57.65,49.91,42.28,57.24a.62.62,0,0,1-.89-.56V41.56a.62.62,0,0,1,.9-.55L57.66,48.8a.62.62,0,0,1,0,1.11Z"/><path class="cls-4" d="M65.54,29.22H48.78V44.3l8.88,4.5a.62.62,0,0,1,0,1.11l-8.87,4.23V69H65.54A11.68,11.68,0,0,0,77.22,57.32V40.9A11.68,11.68,0,0,0,65.54,29.22Z"/></g></g></svg>